HIERARCHY
ROOT joint_Root
{
	OFFSET 0.0 0.0 0.0
	CHANNELS 6 Xposition Yposition Zposition Zrotation Xrotation Yrotation 
	JOINT Hips
	{
		OFFSET -17.1583 93.1646 452.98
		CHANNELS 6 Xposition Yposition Zposition Zrotation Xrotation Yrotation 
		JOINT Spine
		{
			OFFSET 15.7357 0.0 0.0
			CHANNELS 6 Xposition Yposition Zposition Zrotation Xrotation Yrotation 
			JOINT Chest
			{
				OFFSET 8.98455 -0.406207 0.0
				CHANNELS 6 Xposition Yposition Zposition Zrotation Xrotation Yrotation 
				JOINT Neck
				{
					OFFSET 16.3773 0.0 0.0
					CHANNELS 6 Xposition Yposition Zposition Zrotation Xrotation Yrotation 
					JOINT Head
					{
						OFFSET 6.45672 0.0 0.0
						CHANNELS 6 Xposition Yposition Zposition Zrotation Xrotation Yrotation 
						End Site
						{
							OFFSET 0.0 0.0 0.0
						}
					}
				}
				JOINT Shoulder_L
				{
					OFFSET 12.9942 -0.242716 4.98039
					CHANNELS 6 Xposition Yposition Zposition Zrotation Xrotation Yrotation 
					JOINT UpperArm_L
					{
						OFFSET 5.34809 0.0 0.0
						CHANNELS 6 Xposition Yposition Zposition Zrotation Xrotation Yrotation 
						JOINT LowerArm_L
						{
							OFFSET 24.3286 1.87007e-05 0.0
							CHANNELS 6 Xposition Yposition Zposition Zrotation Xrotation Yrotation 
							JOINT Hand_L
							{
								OFFSET 22.2916 0.0 0.0
								CHANNELS 6 Xposition Yposition Zposition Zrotation Xrotation Yrotation 
								End Site
								{
									OFFSET 0.0 0.0 0.0
								}
							}
						}
					}
				}
				JOINT Shoulder_R
				{
					OFFSET 12.9945 -0.242716 -4.98039
					CHANNELS 6 Xposition Yposition Zposition Zrotation Xrotation Yrotation 
					JOINT UpperArm_R
					{
						OFFSET -5.34813 0.0 0.0
						CHANNELS 6 Xposition Yposition Zposition Zrotation Xrotation Yrotation 
						JOINT LowerArm_R
						{
							OFFSET -24.3289 0.000322201 0.0
							CHANNELS 6 Xposition Yposition Zposition Zrotation Xrotation Yrotation 
							JOINT Hand_R
							{
								OFFSET -22.2915 -0.000108084 0.0
								CHANNELS 6 Xposition Yposition Zposition Zrotation Xrotation Yrotation 
								End Site
								{
									OFFSET 0.0 0.0 0.0
								}
							}
						}
					}
				}
			}
		}
		JOINT UpperLeg_L
		{
			OFFSET -2.19248 -6.46944 0.0
			CHANNELS 6 Xposition Yposition Zposition Zrotation Xrotation Yrotation 
			JOINT LowerLeg_L
			{
				OFFSET 39.0811 0.0 -1.23785e-05
				CHANNELS 6 Xposition Yposition Zposition Zrotation Xrotation Yrotation 
				JOINT Foot_L
				{
					OFFSET 40.9854 0.0 -1.26872e-05
					CHANNELS 6 Xposition Yposition Zposition Zrotation Xrotation Yrotation 
					JOINT Toes_L
					{
						OFFSET 11.7543 0.0 0.0
						CHANNELS 6 Xposition Yposition Zposition Zrotation Xrotation Yrotation 
						End Site
						{
							OFFSET 0.0 0.0 0.0
						}
					}
				}
			}
		}
		JOINT UpperLeg_R
		{
			OFFSET -2.19251 6.46944 0.0
			CHANNELS 6 Xposition Yposition Zposition Zrotation Xrotation Yrotation 
			JOINT LowerLeg_R
			{
				OFFSET -39.0811 -0.00228153 -0.0401928
				CHANNELS 6 Xposition Yposition Zposition Zrotation Xrotation Yrotation 
				JOINT Foot_R
				{
					OFFSET -40.9854 0.0 0.0
					CHANNELS 6 Xposition Yposition Zposition Zrotation Xrotation Yrotation 
					JOINT Toes_R
					{
						OFFSET -11.7543 0.0 0.0
						CHANNELS 6 Xposition Yposition Zposition Zrotation Xrotation Yrotation 
						End Site
						{
							OFFSET 0.0 0.0 0.0
						}
					}
				}
			}
		}
	}
}
MOTION
Frames:	7
Frame Time:	0.0333333
0.000000 0.000000 0.000000 0.000000 0.000000 -0.000000 0.541672 93.156200 -2.886790 87.861500 1.027700 4.851000 15.735700 0.000005 -0.000001 104.518000 85.724000 -105.603000 8.984550 -0.406207 -0.000000 0.535437 2.211640 -2.179090 16.377300 -0.000001 -0.000001 4.728410 0.044004 -0.744380 6.456720 -0.000001 -0.000000 -8.316940 -3.494310 4.564750 12.994200 -0.242716 4.980390 -93.475900 9.937390 -70.609400 5.348090 -0.000007 -0.000001 -67.002500 20.719100 -5.227760 24.328600 0.000019 0.000005 8.795530 30.985900 -16.728400 22.291600 -0.000001 0.000005 -8.501720 5.119250 4.648150 12.994500 -0.242716 -4.980390 87.542500 7.419120 -71.614500 -5.348130 -0.000001 -0.000004 -70.376000 34.767300 -5.458840 -24.328900 0.000322 -0.000009 0.831264 2.585340 -17.852700 -22.291500 -0.000108 -0.000004 -0.160007 5.298140 0.124564 -2.192480 -6.469440 -0.000000 -173.580000 -8.035480 -0.526294 39.081100 -0.000007 -0.000012 0.014384 -0.043519 18.290800 40.985400 -0.000006 -0.000013 0.484219 15.105100 -67.803200 11.754300 -0.000000 0.000003 -0.001306 0.187296 -8.978830 -2.192510 6.469440 -0.000001 175.802000 11.996700 -177.477000 -39.081100 -0.002282 -0.040193 0.010493 -0.030146 13.359900 -40.985400 0.000008 0.000006 -5.912210 9.166010 -65.794800 -11.754300 -0.000006 -0.000006 -0.010851 0.277555 -5.295300
0.000000 0.000000 0.000000 0.000000 0.000000 -0.000000 0.597105 93.174800 -2.936460 87.906200 1.070020 4.499010 15.735700 0.000005 -0.000001 105.751000 85.788300 -106.565000 8.984550 -0.406207 -0.000000 0.358863 2.338470 -1.634030 16.377300 -0.000001 -0.000001 4.298680 0.117450 -0.310231 6.456720 -0.000001 -0.000000 -9.069830 -3.329420 4.560730 12.994200 -0.242716 4.980390 -93.763300 10.645700 -70.401600 5.348090 -0.000007 -0.000001 -64.951600 20.005100 -8.153810 24.328600 0.000019 0.000005 8.029080 34.158600 -14.105600 22.291600 -0.000001 0.000005 -15.053900 5.210290 2.366880 12.994500 -0.242716 -4.980390 87.603100 7.267350 -71.690500 -5.348130 -0.000001 -0.000004 -70.238800 33.703300 -4.815820 -24.328900 0.000322 -0.000009 0.755557 2.221130 -18.817700 -22.291500 -0.000108 -0.000004 -0.060130 5.303480 -0.025396 -2.192480 -6.469440 -0.000000 -173.675000 -8.379630 -0.853038 39.081100 -0.000007 -0.000012 0.015205 -0.046344 18.164500 40.985400 -0.000006 -0.000013 0.565180 15.469800 -67.742600 11.754300 -0.000000 0.000003 -0.001102 0.184471 -9.093650 -2.192510 6.469440 -0.000001 175.705000 12.496400 -177.793000 -39.081100 -0.002282 -0.040193 0.010255 -0.029475 13.216300 -40.985400 0.000008 0.000006 -6.039750 9.591670 -65.580600 -11.754300 -0.000006 -0.000006 -0.010502 0.275019 -5.399040
0.000000 0.000000 0.000000 0.000000 0.000000 -0.000000 0.653641 93.232000 -2.988350 87.995000 1.334480 3.984620 15.735700 0.000005 -0.000001 107.186000 85.947800 -107.622000 8.984550 -0.406207 -0.000000 -0.013619 2.423600 -0.871665 16.377300 -0.000001 -0.000001 3.711060 0.202252 0.051552 6.456720 -0.000001 -0.000000 -9.896310 -3.217990 4.764630 12.994200 -0.242716 4.980390 -93.881500 10.855800 -70.188400 5.348090 -0.000007 -0.000001 -62.533200 16.773600 -12.347500 24.328600 0.000019 0.000005 6.588220 38.096300 -10.605700 22.291600 -0.000001 0.000005 -24.932500 5.311320 -0.356112 12.994500 -0.242716 -4.980390 87.665700 7.043220 -71.611200 -5.348130 -0.000001 -0.000004 -70.034800 32.659900 -3.862290 -24.328900 0.000322 -0.000009 0.811859 2.231450 -20.022700 -22.291500 -0.000108 -0.000004 0.078780 5.311260 -0.245293 -2.192480 -6.469440 -0.000000 -173.817000 -8.814720 -1.187710 39.081100 -0.000007 -0.000012 0.013430 -0.042095 17.694900 40.985400 -0.000006 -0.000013 0.630024 16.104100 -67.644000 11.754300 -0.000000 0.000003 -0.001175 0.185494 -9.052060 -2.192510 6.469440 -0.000001 175.491000 13.362500 -178.075000 -39.081100 -0.002282 -0.040193 0.005767 -0.010777 12.720400 -40.985400 0.000008 0.000006 -6.834920 10.241600 -64.947400 -11.754300 -0.000006 -0.000006 -0.010695 0.276425 -5.341520
0.000000 0.000000 0.000000 0.000000 0.000000 -0.000000 0.701683 93.327400 -3.066650 88.072600 1.927780 3.079860 15.735700 0.000005 -0.000001 107.211000 86.340900 -107.109000 8.984550 -0.406207 -0.000000 -0.777252 2.157350 0.217985 16.377300 -0.000001 -0.000001 3.038450 0.451577 0.253520 6.456720 -0.000001 -0.000000 -10.728000 -2.786210 4.803550 12.994200 -0.242716 4.980390 -93.790200 10.477800 -69.983400 5.348090 -0.000007 -0.000001 -60.242500 9.656340 -16.898300 24.328600 0.000019 0.000005 5.258830 41.619500 -7.890420 22.291600 -0.000001 0.000005 -33.661200 5.352620 -1.454560 12.994500 -0.242716 -4.980390 87.776900 6.666600 -71.510900 -5.348130 -0.000001 -0.000004 -69.757200 31.643800 -2.955430 -24.328900 0.000322 -0.000009 0.977415 2.559820 -20.925600 -22.291500 -0.000108 -0.000004 0.100235 5.317840 -0.433397 -2.192480 -6.469440 -0.000000 -174.031000 -9.064860 -1.859580 39.081100 -0.000007 -0.000012 0.011660 -0.038283 16.940600 40.985400 -0.000006 -0.000013 0.645280 16.845400 -67.431500 11.754300 -0.000000 0.000003 -0.001181 0.185569 -9.049030 -2.192510 6.469440 -0.000001 175.389000 14.551400 -178.439000 -39.081100 -0.002282 -0.040193 0.001624 0.008344 11.593100 -40.985400 0.000008 0.000006 -7.719160 10.737700 -63.809400 -11.754300 -0.000006 -0.000006 -0.010311 0.273615 -5.456490
0.000000 0.000000 0.000000 0.000000 0.000000 -0.000000 0.717639 93.464900 -3.167530 88.054000 2.448990 2.032090 15.735700 0.000005 -0.000001 106.257000 86.832800 -105.428000 8.984550 -0.406207 -0.000000 -1.696820 1.704460 1.681700 16.377300 -0.000001 -0.000001 2.066870 0.974096 0.266242 6.456720 -0.000001 -0.000000 -11.575500 -1.802200 4.868060 12.994200 -0.242716 4.980390 -93.573900 9.807880 -69.864400 5.348090 -0.000007 -0.000001 -57.332900 0.890628 -21.658400 24.328600 0.000019 0.000005 4.316760 42.725200 -6.348170 22.291600 -0.000001 0.000005 -34.838300 5.337860 -1.030200 12.994500 -0.242716 -4.980390 87.892800 6.276070 -71.398100 -5.348130 -0.000001 -0.000004 -69.165600 30.636800 -2.308440 -24.328900 0.000322 -0.000009 1.071820 2.732420 -21.446800 -22.291500 -0.000108 -0.000004 -0.028018 5.316310 -0.389610 -2.192480 -6.469440 -0.000000 -174.112000 -9.712630 -2.478550 39.081100 -0.000007 -0.000012 0.009147 -0.032296 15.814200 40.985400 -0.000006 -0.000013 0.604935 17.928500 -67.072200 11.754300 -0.000000 0.000003 -0.000987 0.182851 -9.159470 -2.192510 6.469440 -0.000001 175.440000 15.365500 -178.530000 -39.081100 -0.002282 -0.040193 -0.000194 0.021025 9.540430 -40.985400 0.000008 0.000006 -9.504690 10.991500 -61.942500 -11.754300 -0.000006 -0.000006 -0.010442 0.274581 -5.416970
0.000000 0.000000 0.000000 0.000000 0.000000 -0.000000 0.733577 93.609800 -3.278470 87.905500 2.777360 0.977946 15.735700 0.000005 -0.000001 103.057000 87.317300 -101.334000 8.984550 -0.406207 -0.000000 -2.553120 1.056620 3.471010 16.377300 -0.000001 -0.000001 0.711545 1.856440 0.331072 6.456720 -0.000001 -0.000000 -12.505600 -0.297949 4.963740 12.994200 -0.242716 4.980390 -93.260100 9.064330 -70.122300 5.348090 -0.000007 -0.000001 -52.552600 -6.713530 -25.544200 24.328600 0.000019 0.000005 4.403910 39.456500 -6.910770 22.291600 -0.000001 0.000005 -27.327900 5.321870 -0.542585 12.994500 -0.242716 -4.980390 87.979100 6.005950 -71.363900 -5.348130 -0.000001 -0.000004 -68.239800 29.006400 -2.083220 -24.328900 0.000322 -0.000009 1.266280 3.222460 -21.482500 -22.291500 -0.000108 -0.000004 -0.074526 5.316580 -0.397461 -2.192480 -6.469440 -0.000000 -174.110000 -10.340300 -3.078930 39.081100 -0.000007 -0.000012 0.008889 -0.033871 14.705100 40.985400 -0.000006 -0.000013 0.529188 18.804500 -66.857500 11.754300 -0.000000 0.000003 -0.001196 0.185784 -9.040280 -2.192510 6.469440 -0.000001 175.711000 15.625100 -178.394000 -39.081100 -0.002282 -0.040193 0.004725 -0.011405 6.905580 -40.985400 0.000008 0.000006 -11.252300 10.771500 -59.833700 -11.754300 -0.000006 -0.000006 -0.010601 0.275745 -5.369370
0.000000 0.000000 0.000000 0.000000 0.000000 -0.000000 0.793264 93.720500 -3.346600 87.753700 2.721960 0.246949 15.735700 0.000005 -0.000001 98.044200 87.584800 -95.362900 8.984550 -0.406207 -0.000000 -2.987430 0.424234 5.374330 16.377300 -0.000001 -0.000001 -0.978768 2.811390 0.638923 6.456720 -0.000001 -0.000000 -13.760500 1.409750 5.522750 12.994200 -0.242716 4.980390 -92.771100 7.944350 -70.700500 5.348090 -0.000007 -0.000001 -46.468100 -13.650900 -27.978600 24.328600 0.000019 0.000005 5.113140 35.521500 -8.756710 22.291600 -0.000001 0.000005 -15.453700 5.305370 -0.150918 12.994500 -0.242716 -4.980390 88.033000 5.842600 -71.356900 -5.348130 -0.000001 -0.000004 -66.976800 27.091700 -2.363700 -24.328900 0.000322 -0.000009 1.358820 3.520640 -21.135400 -22.291500 -0.000108 -0.000004 0.289265 5.317690 -0.429305 -2.192480 -6.469440 -0.000000 -174.088000 -11.101300 -3.377010 39.081100 -0.000007 -0.000012 0.009241 -0.037639 13.794800 40.985400 -0.000006 -0.000013 0.480071 19.444500 -66.613700 11.754300 -0.000000 0.000003 -0.001055 0.183809 -9.120530 -2.192510 6.469440 -0.000001 176.089000 15.178200 -179.061000 -39.081100 -0.002282 -0.040193 0.006343 -0.026730 6.399620 -40.985400 0.000008 0.000006 -11.480400 10.229300 -59.014100 -11.754300 -0.000006 -0.000006 -0.009748 0.269415 -5.628300
